<?xml version="1.0" encoding="iso-8859-1"?>
<!-- Generator: Adobe Illustrator 18.0.0, SVG Export Plug-In . SVG Version: 6.00 Build 0)  -->
<!DOCTYPE svg PUBLIC "-//W3C//DTD SVG 1.1//EN" "http://www.w3.org/Graphics/SVG/1.1/DTD/svg11.dtd">
<svg version="1.1" id="Capa_1" xmlns="http://www.w3.org/2000/svg" xmlns:xlink="http://www.w3.org/1999/xlink" x="0px" y="0px"
	 viewBox="0 0 457.996 457.996" style="enable-background:new 0 0 457.996 457.996;" xml:space="preserve">
<path d="M457.996,228.998c0-29.372-28.261-53.269-62.998-53.269c-10.401,0-30.506,2.241-52.363,6.199
	c18.254-12.657,34.055-25.288,41.41-32.643c24.563-24.563,27.648-61.443,6.879-82.213c-20.769-20.771-57.65-17.684-82.212,6.879
	c-7.355,7.355-19.987,23.157-32.643,41.41c3.958-21.857,6.199-41.962,6.199-52.363C282.267,28.261,258.371,0,228.998,0
	s-53.269,28.261-53.269,62.998c0,10.401,2.242,30.507,6.199,52.364c-12.657-18.253-25.288-34.055-32.643-41.411h0
	c-24.563-24.563-61.443-27.647-82.213-6.879c-20.769,20.77-17.683,57.65,6.88,82.213c7.355,7.355,23.156,19.986,41.41,32.643
	c-21.857-3.957-41.962-6.199-52.364-6.199C28.261,175.729,0,199.626,0,228.998s28.261,53.269,62.998,53.269
	c10.401,0,30.507-2.242,52.364-6.199c-18.254,12.657-34.055,25.289-41.41,32.643c-24.563,24.563-27.649,61.443-6.879,82.213
	c8.966,8.966,21.448,13.855,34.952,13.855c2.114,0,4.255-0.12,6.41-0.363c14.884-1.678,29.392-8.913,40.85-20.372
	c7.355-7.354,19.987-23.156,32.644-41.41c-3.958,21.857-6.199,41.963-6.199,52.364c0,34.737,23.896,62.998,53.269,62.998
	s53.269-28.261,53.269-62.998c0-10.401-2.242-30.507-6.199-52.365c12.657,18.254,25.288,34.056,32.644,41.411
	c11.458,11.459,25.966,18.694,40.85,20.372c2.156,0.243,4.296,0.363,6.411,0.363c13.502,0,25.986-4.89,34.951-13.855
	c20.77-20.77,17.684-57.65-6.879-82.213c-7.354-7.355-23.156-19.986-41.41-32.643c21.857,3.958,41.962,6.199,52.363,6.199
	C429.735,282.267,457.996,258.37,457.996,228.998z M329.924,95.164c12.648-12.646,30.866-15.797,39.786-6.879
	c8.919,8.919,5.769,27.14-6.879,39.787c-7.705,7.704-29.105,24.305-51.583,38.747c-6.641,4.268-12.556,7.823-17.794,10.778
	c-3.854-4.823-8.233-9.203-13.056-13.056c2.955-5.238,6.51-11.152,10.778-17.793C305.62,124.271,322.22,102.869,329.924,95.164z
	 M176.501,228.998c0-28.947,23.55-52.497,52.497-52.497s52.497,23.55,52.497,52.497s-23.55,52.497-52.497,52.497
	S176.501,257.945,176.501,228.998z M228.998,30c12.613,0,23.269,15.111,23.269,32.998c0,10.896-3.395,37.767-9.076,63.874
	c-1.674,7.694-3.338,14.375-4.949,20.16c-3.037-0.34-6.118-0.531-9.244-0.531c-3.126,0-6.207,0.191-9.244,0.531
	c-1.611-5.786-3.275-12.466-4.949-20.16c-5.681-26.107-9.076-52.979-9.076-63.874C205.729,45.111,216.385,30,228.998,30z
	 M95.165,128.072c-12.647-12.647-15.798-30.868-6.879-39.787c3.437-3.437,8.254-5.081,13.602-5.081
	c8.531,0,18.411,4.186,26.185,11.96c7.705,7.705,24.305,29.106,38.748,51.584c4.269,6.644,7.822,12.557,10.777,17.794
	c-4.822,3.853-9.201,8.232-13.054,13.054c-5.238-2.954-11.152-6.509-17.794-10.777C124.27,152.376,102.869,135.776,95.165,128.072z
	 M62.998,252.267C45.111,252.267,30,241.611,30,228.998s15.111-23.269,32.998-23.269c10.896,0,37.767,3.395,63.874,9.076
	c7.694,1.674,14.376,3.338,20.161,4.949c-0.34,3.037-0.531,6.117-0.531,9.243s0.191,6.207,0.531,9.243
	c-5.785,1.611-12.467,3.275-20.161,4.949C100.765,248.872,73.894,252.267,62.998,252.267z M128.071,362.831
	c-6.576,6.576-14.958,10.868-22.999,11.774c-3.99,0.451-11.48,0.413-16.787-4.895c-8.919-8.919-5.769-27.14,6.879-39.787
	c7.705-7.704,29.105-24.304,51.583-38.747c6.644-4.269,12.556-7.822,17.795-10.777c3.853,4.822,8.233,9.202,13.055,13.055
	c-2.956,5.239-6.51,11.153-10.778,17.793C152.376,333.726,135.776,355.127,128.071,362.831z M228.998,427.996
	c-12.613,0-23.269-15.111-23.269-32.998c0-10.896,3.395-37.767,9.076-63.874c1.674-7.693,3.338-14.376,4.948-20.16
	c3.037,0.34,6.118,0.531,9.244,0.531c3.126,0,6.207-0.191,9.244-0.531c1.611,5.786,3.275,12.467,4.949,20.16
	c5.682,26.107,9.076,52.979,9.076,63.874C252.267,412.885,241.611,427.996,228.998,427.996z M362.832,329.924
	c12.647,12.647,15.798,30.868,6.879,39.787c-5.307,5.307-12.798,5.344-16.787,4.895c-8.04-0.906-16.423-5.198-22.999-11.774
	c-7.704-7.705-24.305-29.105-38.748-51.583c-4.268-6.642-7.821-12.554-10.777-17.794c4.822-3.854,9.201-8.232,13.055-13.055
	c5.239,2.955,11.151,6.509,17.794,10.777C333.726,305.619,355.126,322.22,362.832,329.924z M331.125,243.19
	c-7.693-1.674-14.376-3.338-20.161-4.948c0.34-3.037,0.531-6.118,0.531-9.244s-0.191-6.207-0.531-9.244
	c5.786-1.61,12.467-3.274,20.161-4.949c26.106-5.682,52.978-9.076,63.873-9.076c17.887,0,32.998,10.655,32.998,23.269
	s-15.111,23.269-32.998,23.269C384.102,252.267,357.231,248.872,331.125,243.19z"/>
<g>
</g>
<g>
</g>
<g>
</g>
<g>
</g>
<g>
</g>
<g>
</g>
<g>
</g>
<g>
</g>
<g>
</g>
<g>
</g>
<g>
</g>
<g>
</g>
<g>
</g>
<g>
</g>
<g>
</g>
</svg>
