<?xml version="1.0" encoding="iso-8859-1"?>
<!-- Generator: Adobe Illustrator 19.0.0, SVG Export Plug-In . SVG Version: 6.00 Build 0)  -->
<svg version="1.1" id="Capa_1" xmlns="http://www.w3.org/2000/svg" xmlns:xlink="http://www.w3.org/1999/xlink" x="0px" y="0px"
	 viewBox="0 0 447 447" style="enable-background:new 0 0 447 447;" xml:space="preserve">
<path d="M439,215.361h-76.771l50.427-50.427c3.125-3.125,3.125-8.19,0-11.314c-3.124-3.124-8.189-3.124-11.313,0l-61.741,61.741
	h-64.934l-18.696-32.382l32.247-55.854l84.721-22.7c4.268-1.144,6.801-5.53,5.657-9.798s-5.529-6.802-9.798-5.657l-69.266,18.56
	l38.525-66.727c2.209-3.826,0.898-8.719-2.928-10.928s-8.719-0.898-10.928,2.928l-38.385,66.485l-18.458-68.885
	c-1.144-4.267-5.527-6.8-9.798-5.657c-4.268,1.144-6.801,5.53-5.657,9.798l22.599,84.34l-32.676,56.597h-36.973l-32.457-56.216
	l22.701-84.721c1.144-4.268-1.389-8.654-5.657-9.798c-4.264-1.144-8.654,1.389-9.798,5.657l-18.56,69.266l-38.525-66.727
	c-2.209-3.827-7.103-5.137-10.928-2.929c-3.826,2.209-5.137,7.102-2.928,10.929l38.385,66.485L78.201,88.969
	c-4.264-1.143-8.654,1.39-9.798,5.657c-1.144,4.268,1.389,8.654,5.657,9.798l84.34,22.599l32.967,57.101l-18.035,31.237h-65.934
	l-61.741-61.741c-3.124-3.124-8.189-3.124-11.313,0c-3.125,3.124-3.125,8.189,0,11.314l50.427,50.427H8c-4.418,0-8,3.582-8,8
	c0,4.418,3.582,8,8,8h77.05l-50.706,50.707c-3.125,3.125-3.125,8.19,0,11.314c1.562,1.562,3.609,2.343,5.657,2.343
	s4.095-0.781,5.657-2.343l62.02-62.021h65.655l18.116,31.377l-33.048,57.24l-84.34,22.599c-4.268,1.144-6.801,5.53-5.657,9.798
	c0.958,3.574,4.19,5.932,7.723,5.932c0.685,0,1.382-0.089,2.075-0.274l68.886-18.458l-38.385,66.485
	c-2.209,3.827-0.898,8.719,2.928,10.929c1.26,0.728,2.635,1.073,3.993,1.073c2.765,0,5.454-1.436,6.936-4.002l38.525-66.727
	l18.56,69.266c0.958,3.574,4.19,5.931,7.723,5.931c0.685,0,1.382-0.089,2.075-0.274c4.268-1.144,6.801-5.53,5.657-9.798
	l-22.701-84.721l32.618-56.496h36.651l32.837,56.876l-22.599,84.34c-1.144,4.268,1.389,8.654,5.657,9.798
	c0.693,0.186,1.39,0.274,2.075,0.274c3.532,0,6.765-2.357,7.723-5.931l18.458-68.885l38.385,66.485
	c1.482,2.566,4.171,4.001,6.936,4.001c1.357,0,2.733-0.346,3.993-1.073c3.826-2.209,5.137-7.102,2.928-10.928l-38.525-66.727
	l69.266,18.56c0.693,0.186,1.39,0.274,2.075,0.274c3.532,0,6.765-2.357,7.723-5.932c1.144-4.268-1.389-8.654-5.657-9.798
	l-84.721-22.7l-32.328-55.994l18.777-32.522h64.655l62.02,62.021c1.562,1.562,3.609,2.343,5.657,2.343s4.095-0.781,5.657-2.343
	c3.125-3.124,3.125-8.189,0-11.314l-50.706-50.707H439c4.418,0,8-3.582,8-8C447,218.943,443.418,215.361,439,215.361z
	 M242.406,255.24h-36.812l-18.406-31.88l18.406-31.88h36.812l18.406,31.88L242.406,255.24z"/>
<g>
</g>
<g>
</g>
<g>
</g>
<g>
</g>
<g>
</g>
<g>
</g>
<g>
</g>
<g>
</g>
<g>
</g>
<g>
</g>
<g>
</g>
<g>
</g>
<g>
</g>
<g>
</g>
<g>
</g>
</svg>
