<svg id="Capa_1" enable-background="new 0 0 508.565 508.565" height="512" viewBox="0 0 508.565 508.565" width="512" xmlns="http://www.w3.org/2000/svg"><g><path d="m426.882 174.656c-25.317 25.317-117.979 40.18-161.665 44.993 4.813-43.686 19.676-136.348 44.993-161.666 15.582-15.582 36.3-24.164 58.336-24.164 19.517 0 37.991 6.743 52.787 19.107l-19.124 19.124h-57.94v15h42.94l-29.91 29.91h-39.32v15h24.319l-27.14 27.14 10.607 10.606 27.14-27.14v24.32h15v-39.32l29.909-29.909v45.532h15v-60.532l19.126-19.126c9.801 11.723 16.082 25.763 18.267 41.025l14.848-2.126c-2.649-18.501-10.378-35.484-22.468-49.546l42.278-42.277-10.606-10.607-42.274 42.274c-17.657-15.176-39.911-23.455-63.438-23.455-26.043 0-50.527 10.142-68.943 28.557-26.382 26.383-33.581 74.254-40.147 109.215-4.958 26.397-8.463 53.012-10.93 79.748 31.428-2.899 62.733-7.202 93.636-13.687 46.6-9.779 98.635-22.192 117.468-71.482l-14.012-5.354c-4.147 10.85-10.45 20.553-18.737 28.84z"/><path d="m449.538 132.068 14.727 2.851c1.032-5.333 1.622-10.799 1.754-16.245l-14.996-.361c-.112 4.613-.611 9.24-1.485 13.755z"/><path d="m297.054 172.812h15v15h-15z" transform="matrix(.707 -.707 .707 .707 -38.294 268.18)"/><path d="m208.962 319.602c-18.416-18.416-42.9-28.557-68.943-28.557-23.528 0-45.781 8.279-63.439 23.455l-42.274-42.274-10.607 10.606 42.276 42.276c-14.998 17.456-23.274 39.442-23.452 62.683-.198 25.728 9.539 50.069 27.416 68.541l10.778-10.432c-29.356-30.331-30.615-78.237-4.084-110.134l19.117 19.116v60.532h15v-45.532l29.909 29.909v39.32h15v-24.32l27.14 27.14 10.607-10.606-27.14-27.14h24.319v-15h-39.319l-29.91-29.91h42.941v-15h-57.941l-19.124-19.124c14.796-12.364 33.27-19.107 52.787-19.107 22.036 0 42.754 8.582 58.336 24.164 25.31 25.31 40.171 117.923 44.988 161.626-27.785-3.154-111.977-14.256-150.292-36.563l-7.547 12.963c32.006 18.634 71.551 25.592 107.597 31.706 22.202 3.765 44.521 6.557 66.939 8.626-2.467-26.736-5.967-53.352-10.93-79.748-6.574-34.961-13.763-82.83-40.148-109.216z"/><path d="m196.263 444.789h15v15h-15z" transform="matrix(.707 -.707 .707 .707 -260.128 276.534)"/><path d="m149.056 186.385h30.119c0-25.952 2.592-52.162-17.515-72.27-20.097-20.097-46.316-17.515-72.27-17.515 0 14.708-1.823 31 1.971 45.355 6.827 25.833 30.981 44.43 57.695 44.43zm-44.666-74.785c17.216 0 33.517-.022 46.662 13.123 13.133 13.133 13.123 29.459 13.123 46.662-17.216 0-33.517.022-46.662-13.123-13.133-13.132-13.123-29.458-13.123-46.662z"/><path d="m329.39 380.267v30.119c25.952 0 52.163 2.592 72.27-17.515 20.097-20.097 17.515-46.316 17.515-72.27-14.708 0-31-1.823-45.356 1.971-25.832 6.827-44.429 30.981-44.429 57.695zm74.785-29.548c0 17.434-10.559 33.663-26.458 40.785-10.585 4.742-22.035 3.881-33.328 3.881 0-17.216-.022-33.517 13.123-46.662 13.133-13.133 29.459-13.123 46.662-13.123v15.119z"/></g></svg>